<mxfile host="app.diagrams.net" modified="2022-12-24T03:51:20.676Z" agent="5.0 (Macintosh; Intel Mac OS X 10_14_6) AppleWebKit/537.36 (KHTML, like Gecko) Chrome/108.0.0.0 Safari/537.36" version="20.7.4" etag="4kyUBFIAGitvC-Dte5xD" type="github">
  <diagram id="t0FNU5qLFsDa1V1EcBOz" name="第 1 页">
    <mxGraphModel dx="2020" dy="1839" grid="1" gridSize="10" guides="1" tooltips="1" connect="1" arrows="1" fold="1" page="1" pageScale="1" pageWidth="827" pageHeight="1169" math="0" shadow="0">
      <root>
        <mxCell id="0" />
        <mxCell id="1" parent="0" />
        <mxCell id="4KQue5mUYNjkFJsJQ4-u-3" value="根域名服务器" style="rounded=1;whiteSpace=wrap;html=1;strokeWidth=2;fillWeight=4;hachureGap=8;hachureAngle=45;fillColor=#f8cecc;strokeColor=#b85450;fontSize=15;fontStyle=1" vertex="1" parent="1">
          <mxGeometry x="560" y="120" width="120" height="60" as="geometry" />
        </mxCell>
        <mxCell id="4KQue5mUYNjkFJsJQ4-u-4" value="&amp;nbsp;com" style="rounded=1;whiteSpace=wrap;html=1;strokeWidth=2;fillWeight=4;hachureGap=8;hachureAngle=45;fillColor=#fff2cc;strokeColor=#d6b656;fontSize=15;fontStyle=1" vertex="1" parent="1">
          <mxGeometry x="560" y="360" width="120" height="60" as="geometry" />
        </mxCell>
        <mxCell id="4KQue5mUYNjkFJsJQ4-u-5" value="server.com" style="rounded=1;whiteSpace=wrap;html=1;strokeWidth=2;fillWeight=4;hachureGap=8;hachureAngle=45;fillColor=#dae8fc;strokeColor=#6c8ebf;fontSize=15;fontStyle=1" vertex="1" parent="1">
          <mxGeometry x="120" y="360" width="120" height="60" as="geometry" />
        </mxCell>
        <mxCell id="4KQue5mUYNjkFJsJQ4-u-6" value="本地DNS服务器" style="rounded=1;whiteSpace=wrap;html=1;strokeWidth=2;fillWeight=4;hachureGap=8;hachureAngle=45;fillColor=#d5e8d4;strokeColor=#82b366;fontSize=15;fontStyle=1" vertex="1" parent="1">
          <mxGeometry x="120" y="120" width="120" height="60" as="geometry" />
        </mxCell>
        <mxCell id="4KQue5mUYNjkFJsJQ4-u-7" value="计算机" style="rounded=1;whiteSpace=wrap;html=1;strokeWidth=2;fillWeight=4;hachureGap=8;hachureAngle=45;fillColor=#b0e3e6;strokeColor=#0e8088;fontSize=15;fontStyle=1" vertex="1" parent="1">
          <mxGeometry x="120" y="-80" width="120" height="60" as="geometry" />
        </mxCell>
        <mxCell id="4KQue5mUYNjkFJsJQ4-u-8" value="系统DNS缓存/配置" style="rounded=1;whiteSpace=wrap;html=1;strokeWidth=2;fillWeight=4;hachureGap=8;hachureAngle=45;fillColor=#b0e3e6;strokeColor=#0e8088;fontSize=15;fontStyle=1" vertex="1" parent="1">
          <mxGeometry x="430" y="-80" width="200" height="60" as="geometry" />
        </mxCell>
        <mxCell id="4KQue5mUYNjkFJsJQ4-u-10" value="" style="endArrow=classic;html=1;rounded=0;sketch=1;strokeWidth=2;fontSize=15;fillColor=#d5e8d4;strokeColor=#82b366;" edge="1" parent="1">
          <mxGeometry width="50" height="50" relative="1" as="geometry">
            <mxPoint x="250" y="140" as="sourcePoint" />
            <mxPoint x="550" y="140" as="targetPoint" />
          </mxGeometry>
        </mxCell>
        <mxCell id="4KQue5mUYNjkFJsJQ4-u-11" value="" style="endArrow=classic;html=1;rounded=0;sketch=1;strokeWidth=2;fontSize=15;fillColor=#f8cecc;strokeColor=#b85450;" edge="1" parent="1">
          <mxGeometry width="50" height="50" relative="1" as="geometry">
            <mxPoint x="550" y="160" as="sourcePoint" />
            <mxPoint x="250" y="160" as="targetPoint" />
          </mxGeometry>
        </mxCell>
        <mxCell id="4KQue5mUYNjkFJsJQ4-u-14" value="" style="endArrow=classic;html=1;rounded=0;sketch=1;strokeWidth=2;fontSize=15;fillColor=#d5e8d4;strokeColor=#82b366;" edge="1" parent="1">
          <mxGeometry width="50" height="50" relative="1" as="geometry">
            <mxPoint x="250" y="200" as="sourcePoint" />
            <mxPoint x="550" y="350" as="targetPoint" />
          </mxGeometry>
        </mxCell>
        <mxCell id="4KQue5mUYNjkFJsJQ4-u-15" value="" style="endArrow=classic;html=1;rounded=0;sketch=1;strokeWidth=2;fontSize=15;fillColor=#fff2cc;strokeColor=#d6b656;" edge="1" parent="1">
          <mxGeometry width="50" height="50" relative="1" as="geometry">
            <mxPoint x="540" y="370" as="sourcePoint" />
            <mxPoint x="240" y="220" as="targetPoint" />
          </mxGeometry>
        </mxCell>
        <mxCell id="4KQue5mUYNjkFJsJQ4-u-16" value="" style="endArrow=classic;html=1;rounded=0;sketch=1;strokeWidth=2;fontSize=15;fillColor=#d5e8d4;strokeColor=#82b366;" edge="1" parent="1">
          <mxGeometry width="50" height="50" relative="1" as="geometry">
            <mxPoint x="190" y="190" as="sourcePoint" />
            <mxPoint x="190" y="350" as="targetPoint" />
          </mxGeometry>
        </mxCell>
        <mxCell id="4KQue5mUYNjkFJsJQ4-u-17" value="" style="endArrow=classic;html=1;rounded=0;sketch=1;strokeWidth=2;fontSize=15;fillColor=#dae8fc;strokeColor=#6c8ebf;" edge="1" parent="1">
          <mxGeometry width="50" height="50" relative="1" as="geometry">
            <mxPoint x="170" y="350" as="sourcePoint" />
            <mxPoint x="170" y="190" as="targetPoint" />
          </mxGeometry>
        </mxCell>
        <mxCell id="4KQue5mUYNjkFJsJQ4-u-18" value="" style="endArrow=classic;html=1;rounded=0;sketch=1;strokeWidth=2;fontSize=15;fillColor=#b0e3e6;strokeColor=#0e8088;" edge="1" parent="1">
          <mxGeometry width="50" height="50" relative="1" as="geometry">
            <mxPoint x="190" y="-10" as="sourcePoint" />
            <mxPoint x="190" y="110" as="targetPoint" />
          </mxGeometry>
        </mxCell>
        <mxCell id="4KQue5mUYNjkFJsJQ4-u-20" value="" style="endArrow=classic;html=1;rounded=0;sketch=1;strokeWidth=2;fontSize=15;fillColor=#d5e8d4;strokeColor=#82b366;" edge="1" parent="1">
          <mxGeometry width="50" height="50" relative="1" as="geometry">
            <mxPoint x="170" y="110" as="sourcePoint" />
            <mxPoint x="170" y="-10" as="targetPoint" />
          </mxGeometry>
        </mxCell>
        <mxCell id="4KQue5mUYNjkFJsJQ4-u-22" value="" style="endArrow=classic;startArrow=classic;html=1;rounded=0;sketch=1;strokeWidth=2;fontSize=15;fillColor=#b0e3e6;strokeColor=#0e8088;" edge="1" parent="1">
          <mxGeometry width="50" height="50" relative="1" as="geometry">
            <mxPoint x="260" y="-50" as="sourcePoint" />
            <mxPoint x="410" y="-50" as="targetPoint" />
          </mxGeometry>
        </mxCell>
        <mxCell id="4KQue5mUYNjkFJsJQ4-u-23" value="1.查询本地缓存" style="text;strokeColor=none;fillColor=none;html=1;fontSize=12;fontStyle=1;verticalAlign=middle;align=center;sketch=0;" vertex="1" parent="1">
          <mxGeometry x="270" y="-90" width="120" height="40" as="geometry" />
        </mxCell>
        <mxCell id="4KQue5mUYNjkFJsJQ4-u-24" value="2.查询本地DNS服务器，&lt;br&gt;www.server.com地址是什么" style="text;strokeColor=none;fillColor=none;html=1;fontSize=12;fontStyle=1;verticalAlign=middle;align=center;sketch=0;" vertex="1" parent="1">
          <mxGeometry x="220" y="40" width="120" height="40" as="geometry" />
        </mxCell>
        <mxCell id="4KQue5mUYNjkFJsJQ4-u-25" value="3.查询根域名服务器" style="text;strokeColor=none;fillColor=none;html=1;fontSize=12;fontStyle=1;verticalAlign=middle;align=center;sketch=0;" vertex="1" parent="1">
          <mxGeometry x="320" y="100" width="120" height="40" as="geometry" />
        </mxCell>
        <mxCell id="4KQue5mUYNjkFJsJQ4-u-26" value="4.返回根下的com服务器" style="text;strokeColor=none;fillColor=none;html=1;fontSize=12;fontStyle=1;verticalAlign=middle;align=center;sketch=0;" vertex="1" parent="1">
          <mxGeometry x="380" y="160" width="120" height="40" as="geometry" />
        </mxCell>
        <mxCell id="4KQue5mUYNjkFJsJQ4-u-27" value="5.查询com服务器" style="text;strokeColor=none;fillColor=none;html=1;fontSize=12;fontStyle=1;verticalAlign=middle;align=center;sketch=0;" vertex="1" parent="1">
          <mxGeometry x="370" y="240" width="120" height="40" as="geometry" />
        </mxCell>
        <mxCell id="4KQue5mUYNjkFJsJQ4-u-28" value="6.返回com下&lt;br&gt;的server.com" style="text;strokeColor=none;fillColor=none;html=1;fontSize=12;fontStyle=1;verticalAlign=middle;align=center;sketch=0;" vertex="1" parent="1">
          <mxGeometry x="300" y="290" width="120" height="40" as="geometry" />
        </mxCell>
        <mxCell id="4KQue5mUYNjkFJsJQ4-u-29" value="7.查询server.com" style="text;strokeColor=none;fillColor=none;html=1;fontSize=12;fontStyle=1;verticalAlign=middle;align=center;sketch=0;" vertex="1" parent="1">
          <mxGeometry x="180" y="260" width="120" height="40" as="geometry" />
        </mxCell>
        <mxCell id="4KQue5mUYNjkFJsJQ4-u-30" value="8.返回server.com&lt;br&gt;下的www.server.com" style="text;strokeColor=none;fillColor=none;html=1;fontSize=12;fontStyle=1;verticalAlign=middle;align=center;sketch=0;" vertex="1" parent="1">
          <mxGeometry x="40" y="220" width="120" height="40" as="geometry" />
        </mxCell>
        <mxCell id="4KQue5mUYNjkFJsJQ4-u-31" value="9.得到www.server.com的地址" style="text;strokeColor=none;fillColor=none;html=1;fontSize=12;fontStyle=1;verticalAlign=middle;align=center;sketch=0;" vertex="1" parent="1">
          <mxGeometry x="20" y="20" width="120" height="40" as="geometry" />
        </mxCell>
        <mxCell id="4KQue5mUYNjkFJsJQ4-u-32" value="" style="shape=curlyBracket;whiteSpace=wrap;html=1;rounded=1;labelPosition=left;verticalLabelPosition=middle;align=right;verticalAlign=middle;sketch=0;fontSize=12;" vertex="1" parent="1">
          <mxGeometry x="690" y="80" width="20" height="140" as="geometry" />
        </mxCell>
        <mxCell id="4KQue5mUYNjkFJsJQ4-u-33" value="cn" style="text;strokeColor=none;fillColor=none;html=1;fontSize=5;fontStyle=1;verticalAlign=middle;align=center;sketch=0;" vertex="1" parent="1">
          <mxGeometry x="690" y="110" width="80" height="40" as="geometry" />
        </mxCell>
        <mxCell id="4KQue5mUYNjkFJsJQ4-u-34" value="com" style="text;strokeColor=none;fillColor=none;html=1;fontSize=5;fontStyle=1;verticalAlign=middle;align=center;sketch=0;" vertex="1" parent="1">
          <mxGeometry x="690" y="70" width="80" height="40" as="geometry" />
        </mxCell>
        <mxCell id="4KQue5mUYNjkFJsJQ4-u-35" value="org" style="text;strokeColor=none;fillColor=none;html=1;fontSize=5;fontStyle=1;verticalAlign=middle;align=center;sketch=0;" vertex="1" parent="1">
          <mxGeometry x="690" y="150" width="80" height="40" as="geometry" />
        </mxCell>
        <mxCell id="4KQue5mUYNjkFJsJQ4-u-36" value="..." style="text;strokeColor=none;fillColor=none;html=1;fontSize=5;fontStyle=1;verticalAlign=middle;align=center;sketch=0;" vertex="1" parent="1">
          <mxGeometry x="690" y="190" width="80" height="40" as="geometry" />
        </mxCell>
        <mxCell id="4KQue5mUYNjkFJsJQ4-u-37" value="" style="shape=curlyBracket;whiteSpace=wrap;html=1;rounded=1;labelPosition=left;verticalLabelPosition=middle;align=right;verticalAlign=middle;sketch=0;fontSize=12;" vertex="1" parent="1">
          <mxGeometry x="690" y="340" width="20" height="110" as="geometry" />
        </mxCell>
        <mxCell id="4KQue5mUYNjkFJsJQ4-u-38" value="test.com" style="text;strokeColor=none;fillColor=none;html=1;fontSize=5;fontStyle=1;verticalAlign=middle;align=center;sketch=0;" vertex="1" parent="1">
          <mxGeometry x="710" y="370" width="80" height="40" as="geometry" />
        </mxCell>
        <mxCell id="4KQue5mUYNjkFJsJQ4-u-39" value="server.com" style="text;strokeColor=none;fillColor=none;html=1;fontSize=5;fontStyle=1;verticalAlign=middle;align=center;sketch=0;" vertex="1" parent="1">
          <mxGeometry x="710" y="330" width="80" height="40" as="geometry" />
        </mxCell>
        <mxCell id="4KQue5mUYNjkFJsJQ4-u-41" value="..." style="text;strokeColor=none;fillColor=none;html=1;fontSize=5;fontStyle=1;verticalAlign=middle;align=center;sketch=0;" vertex="1" parent="1">
          <mxGeometry x="710" y="420" width="80" height="40" as="geometry" />
        </mxCell>
      </root>
    </mxGraphModel>
  </diagram>
</mxfile>
